<svg width="47" height="47" viewBox="0 0 47 47" fill="none" xmlns="http://www.w3.org/2000/svg">
<path fill-rule="evenodd" clip-rule="evenodd" d="M14.619 2.08759C16.9161 1.98184 17.6485 1.95834 23.5 1.95834C29.3515 1.95834 30.084 1.9838 32.3791 2.08759C34.6743 2.19139 36.241 2.55759 37.6118 3.0883C39.0472 3.63076 40.3495 4.47872 41.4266 5.57538C42.5233 6.65051 43.3693 7.95084 43.9098 9.38826C44.4425 10.7591 44.8067 12.3258 44.9125 14.617C45.0182 16.9181 45.0417 17.6505 45.0417 23.5C45.0417 29.3515 45.0162 30.0839 44.9125 32.3811C44.8087 34.6723 44.4425 36.239 43.9098 37.6098C43.3693 39.0474 42.5219 40.3499 41.4266 41.4266C40.3495 42.5233 39.0472 43.3693 37.6118 43.9098C36.241 44.4424 34.6743 44.8067 32.383 44.9124C30.084 45.0182 29.3515 45.0417 23.5 45.0417C17.6485 45.0417 16.9161 45.0162 14.619 44.9124C12.3277 44.8086 10.7611 44.4424 9.39025 43.9098C7.95268 43.3692 6.65019 42.5218 5.57346 41.4266C4.47753 40.3508 3.62945 39.049 3.08833 37.6118C2.55762 36.2409 2.19337 34.6743 2.08762 32.383C1.98187 30.082 1.95837 29.3496 1.95837 23.5C1.95837 17.6485 1.98383 16.9161 2.08762 14.6209C2.19142 12.3258 2.55762 10.7591 3.08833 9.38826C3.63025 7.951 4.47898 6.64917 5.57542 5.57343C6.65062 4.47774 7.9518 3.62967 9.38829 3.0883C10.7591 2.55759 12.3258 2.19334 14.617 2.08759H14.619ZM32.2048 5.96509C29.9332 5.8613 29.2517 5.83976 23.5 5.83976C17.7484 5.83976 17.0669 5.8613 14.7952 5.96509C12.694 6.06105 11.5542 6.41159 10.7944 6.7073C9.78975 7.09897 9.07104 7.56309 8.31708 8.31705C7.60238 9.01236 7.05235 9.85881 6.70733 10.7943C6.41162 11.5542 6.06108 12.6939 5.96512 14.7952C5.86133 17.0669 5.83979 17.7484 5.83979 23.5C5.83979 29.2516 5.86133 29.9331 5.96512 32.2048C6.06108 34.3061 6.41162 35.4458 6.70733 36.2057C7.052 37.1398 7.60229 37.9878 8.31708 38.683C9.01229 39.3978 9.86025 39.9481 10.7944 40.2927C11.5542 40.5884 12.694 40.939 14.7952 41.0349C17.0669 41.1387 17.7465 41.1603 23.5 41.1603C29.2536 41.1603 29.9332 41.1387 32.2048 41.0349C34.3061 40.939 35.4459 40.5884 36.2057 40.2927C37.2103 39.9011 37.929 39.4369 38.683 38.683C39.3978 37.9878 39.9481 37.1398 40.2927 36.2057C40.5885 35.4458 40.939 34.3061 41.035 32.2048C41.1387 29.9331 41.1603 29.2516 41.1603 23.5C41.1603 17.7484 41.1387 17.0669 41.035 14.7952C40.939 12.6939 40.5885 11.5542 40.2927 10.7943C39.9011 9.78972 39.437 9.07101 38.683 8.31705C37.9876 7.6024 37.1412 7.05238 36.2057 6.7073C35.4459 6.41159 34.3061 6.06105 32.2048 5.96509V5.96509ZM20.7486 30.1407C22.2852 30.7804 23.9962 30.8667 25.5894 30.385C27.1826 29.9032 28.5592 28.8833 29.4839 27.4994C30.4087 26.1155 30.8243 24.4535 30.6598 22.7972C30.4953 21.1409 29.7608 19.5931 28.5819 18.4181C27.8304 17.6671 26.9217 17.092 25.9212 16.7343C24.9207 16.3765 23.8534 16.2451 22.796 16.3494C21.7386 16.4537 20.7175 16.7911 19.8062 17.3374C18.8949 17.8837 18.1161 18.6252 17.5258 19.5086C16.9354 20.3921 16.5483 21.3954 16.3923 22.4463C16.2363 23.4973 16.3152 24.5698 16.6234 25.5866C16.9316 26.6035 17.4615 27.5393 18.1748 28.3268C18.8881 29.1142 19.7671 29.7337 20.7486 30.1407ZM15.6706 15.6706C16.6988 14.6424 17.9194 13.8268 19.2628 13.2704C20.6062 12.7139 22.046 12.4275 23.5 12.4275C24.9541 12.4275 26.3939 12.7139 27.7373 13.2704C29.0807 13.8268 30.3013 14.6424 31.3295 15.6706C32.3576 16.6988 33.1732 17.9194 33.7297 19.2628C34.2861 20.6061 34.5725 22.046 34.5725 23.5C34.5725 24.9541 34.2861 26.3939 33.7297 27.7373C33.1732 29.0806 32.3576 30.3013 31.3295 31.3294C29.253 33.4059 26.4366 34.5725 23.5 34.5725C20.5634 34.5725 17.7471 33.4059 15.6706 31.3294C13.5941 29.2529 12.4276 26.4366 12.4276 23.5C12.4276 20.5634 13.5941 17.7471 15.6706 15.6706V15.6706ZM37.0282 14.0765C37.283 13.8362 37.487 13.5471 37.6281 13.2265C37.7691 12.9059 37.8445 12.5603 37.8496 12.2101C37.8547 11.8599 37.7895 11.5122 37.6578 11.1876C37.5261 10.863 37.3306 10.5682 37.083 10.3205C36.8353 10.0728 36.5404 9.87737 36.2159 9.74569C35.8913 9.61401 35.5436 9.5488 35.1934 9.5539C34.8432 9.55901 34.4975 9.63433 34.1769 9.77542C33.8563 9.9165 33.5673 10.1205 33.327 10.3753C32.8595 10.8708 32.6036 11.529 32.6135 12.2101C32.6235 12.8912 32.8985 13.5416 33.3801 14.0233C33.8618 14.505 34.5123 14.78 35.1934 14.7899C35.8745 14.7999 36.5327 14.5439 37.0282 14.0765V14.0765Z" fill="#DB00FF"/>
</svg>
